#define logo_width 60
#define logo_height 59
static unsigned char logo_bits[] = {
   0x00, 0x00, 0x00, 0x00, 0x00, 0x00, 0x00, 0x00, 0x00, 0x00, 0x00, 0x00,
   0x00, 0x00, 0x00, 0x00, 0x00, 0x00, 0x00, 0x00, 0x00, 0x00, 0x00, 0x00,
   0x00, 0x00, 0x00, 0x00, 0x00, 0x00, 0x00, 0x00, 0x00, 0x00, 0x00, 0x00,
   0x20, 0x00, 0x00, 0x00, 0x00, 0x00, 0x00, 0x00, 0x20, 0x00, 0x00, 0x00,
   0x00, 0x00, 0x00, 0x00, 0x50, 0x00, 0x00, 0x00, 0x00, 0x00, 0x00, 0x00,
   0x10, 0x00, 0x00, 0x00, 0x00, 0x00, 0x00, 0x00, 0x00, 0x00, 0x00, 0x00,
   0x00, 0x00, 0x00, 0x20, 0x00, 0x00, 0xf8, 0x03, 0x00, 0x00, 0x00, 0x10,
   0x04, 0x00, 0x0c, 0x04, 0x00, 0x00, 0x00, 0x70, 0x03, 0x00, 0x04, 0x0f,
   0x00, 0x00, 0x00, 0x40, 0x00, 0x00, 0x10, 0x04, 0x00, 0x00, 0x00, 0x20,
   0x00, 0x00, 0x10, 0x04, 0x00, 0x00, 0x00, 0x20, 0x08, 0x00, 0x00, 0x04,
   0x00, 0x00, 0x00, 0x28, 0x00, 0x00, 0x00, 0x04, 0x00, 0x00, 0x00, 0xa8,
   0x20, 0x00, 0x00, 0x00, 0x00, 0x00, 0x00, 0x62, 0x28, 0x00, 0x00, 0x00,
   0x00, 0x00, 0x80, 0x28, 0x28, 0x00, 0x00, 0x00, 0x00, 0x00, 0x40, 0x20,
   0x28, 0x00, 0x00, 0x00, 0x00, 0x00, 0x10, 0x08, 0x2c, 0x00, 0x00, 0x00,
   0x00, 0x00, 0x04, 0x08, 0x29, 0x00, 0x02, 0x00, 0x00, 0x00, 0x01, 0x4b,
   0x28, 0x00, 0x0a, 0x00, 0x00, 0x80, 0x80, 0x08, 0x08, 0x00, 0x0a, 0x00,
   0x00, 0x20, 0x20, 0x08, 0x08, 0x00, 0x0a, 0x00, 0x00, 0x08, 0x08, 0x18,
   0x08, 0x00, 0x0a, 0x00, 0x00, 0x02, 0x02, 0x14, 0x0a, 0x00, 0x00, 0x02,
   0x00, 0x00, 0x00, 0x9b, 0x00, 0x00, 0x00, 0x02, 0x40, 0x00, 0x40, 0x30,
   0x00, 0x00, 0x0d, 0x02, 0x10, 0x10, 0x20, 0x10, 0x00, 0x00, 0x01, 0x02,
   0x00, 0x0c, 0x08, 0x14, 0x14, 0xfc, 0xff, 0x03, 0x08, 0x00, 0x00, 0x00,
   0x00, 0x00, 0x00, 0x00, 0x00, 0x00, 0x00, 0x00, 0x00, 0x00, 0x00, 0x04,
   0xf8, 0xff, 0xe3, 0x19, 0x14, 0x00, 0x05, 0x02, 0x00, 0xc3, 0x00, 0x10,
   0x10, 0x00, 0x05, 0x02, 0x00, 0xfa, 0x01, 0x14, 0x14, 0x00, 0x05, 0x02,
   0x80, 0x00, 0x02, 0x14, 0x14, 0x80, 0x05, 0x02, 0xf0, 0xff, 0x07, 0x04,
   0x14, 0xc0, 0xff, 0x03, 0x60, 0x61, 0x05, 0x04, 0x14, 0xc0, 0x00, 0x00,
   0x20, 0xc2, 0x01, 0x04, 0x14, 0x20, 0x00, 0x00, 0x60, 0x00, 0x01, 0x04,
   0x14, 0x20, 0x00, 0x00, 0x60, 0x0f, 0x01, 0x04, 0x04, 0x10, 0x00, 0x00,
   0x20, 0xff, 0x01, 0x04, 0x04, 0x00, 0x00, 0x00, 0x20, 0xfc, 0x00, 0x00,
   0x04, 0x08, 0x00, 0x00, 0x20, 0xfc, 0x00, 0x00, 0x00, 0x04, 0x00, 0x00,
   0x20, 0x7c, 0x00, 0x00, 0x00, 0x00, 0x00, 0x00, 0x00, 0x7c, 0x00, 0x00,
   0x00, 0x02, 0x00, 0x00, 0x40, 0x3c, 0x00, 0x00, 0x00, 0x11, 0x86, 0x01,
   0x40, 0x3c, 0x8c, 0xc9, 0xf0, 0xff, 0x09, 0x00, 0xfa, 0xff, 0x03, 0x00,
   0x00, 0x00, 0x00, 0x00, 0x00, 0x00, 0x00, 0x00, 0x00, 0x00, 0x03, 0x00,
   0x00, 0x00, 0x80, 0xc1, 0xf1, 0xf3, 0x03, 0x00, 0x00, 0x00, 0xc0, 0xc3,
   0x40, 0x40, 0x00, 0x00, 0x00, 0x00, 0x60, 0xc0, 0x40, 0x40, 0x00, 0x00,
   0x00, 0x00, 0x20, 0xc0, 0x40, 0x40, 0x00, 0x00, 0x00, 0x00, 0x30, 0xc4,
   0x40, 0x40, 0x00, 0x00, 0x00, 0x00, 0x60, 0xc3, 0x41, 0x40, 0x00, 0x00,
   0x00, 0x00, 0x80, 0x03, 0x00, 0x00, 0x00, 0x00, 0x00, 0x00, 0x00, 0x00,
   0x00, 0x00, 0x00, 0x00 };
